<svg xmlns="http://www.w3.org/2000/svg" width="1600" height="900" viewBox="0 0 1600 900" role="img" aria-labelledby="title desc">
  <title id="title">CN Direct by DeepWheel GitHub introduction</title>
  <desc id="desc">Keep Shadowrocket on while mainland office, banking, media and gaming traffic is routed directly and overseas AI and developer services follow the manually selected node.</desc>
  <defs>
    <radialGradient id="aura" cx="100%" cy="0%" r="135%">
      <stop offset="0%" stop-color="#DFEAF7"/><stop offset="26%" stop-color="#ECF2FB"/><stop offset="55%" stop-color="#F6F9FC"/><stop offset="100%" stop-color="#FBFBFB"/>
    </radialGradient>
    <filter id="cardShadow" x="-10%" y="-10%" width="120%" height="130%">
      <feDropShadow dx="0" dy="2" stdDeviation="2" flood-color="#101722" flood-opacity=".04"/><feDropShadow dx="0" dy="14" stdDeviation="17" flood-color="#101722" flood-opacity=".07"/>
    </filter>
  </defs>
  <rect width="1600" height="900" fill="url(#aura)"/><rect x="64" y="64" width="1472" height="772" rx="32" fill="#FFFFFF" filter="url(#cardShadow)"/>
  <g transform="translate(106 81) scale(.30)"><path fill="#101722" d="M37 115V68C37 46 55 28 76 28H153C159 28 162 32 162 38V113C162 135 145 151 124 151H115C111 151 108 148 108 144V130C108 126 111 123 115 123H123C129 123 132 119 132 113V63C132 59 129 56 125 56H79C72 56 67 61 67 68V113C67 116 65 117 62 117H39C38 117 37 116 37 115Z"/><circle cx="87.5" cy="137.5" r="14.99" fill="#0071E3"/></g>
  <text x="180" y="122" font-family="'Avenir Next','Inter',Arial,sans-serif" font-weight="600" font-size="22" fill="#101722" letter-spacing="-.3">Deep<tspan fill="#0071E3">Wheel</tspan></text>
  <text x="1494" y="118" text-anchor="end" font-family="'Avenir Next','Inter',Arial,sans-serif" font-weight="600" font-size="13" fill="#5C626B" letter-spacing="2.6">SHADOWROCKET ROUTING</text><line x1="106" y1="158" x2="1494" y2="158" stroke="#E1E6EE"/>
  <text x="112" y="226" font-family="'Avenir Next','Inter',Arial,sans-serif" font-weight="700" font-size="14" fill="#5C626B" letter-spacing="2.4">CN DIRECT BY DEEPWHEEL</text>
  <text x="112" y="292" font-family="'Avenir Next','Inter',Arial,sans-serif" font-weight="600" font-size="48" fill="#101722" letter-spacing="-1">Mainland direct. Overseas proxied.</text>
  <text x="112" y="350" font-family="'Avenir Next','Inter',Arial,sans-serif" font-weight="400" font-size="26" fill="#42474F">Install once. After that, just choose your node.</text>
  <text x="112" y="402" font-family="'Avenir Next','Inter',Arial,sans-serif" font-weight="400" font-size="20" fill="#5C626B">One transparent Shadowrocket config. No bundled nodes.</text>
  <line x1="112" y1="448" x2="880" y2="448" stroke="#E1E6EE" stroke-width="1.5"/>
  <text x="112" y="497" font-family="'Avenir Next','Inter',Arial,sans-serif" font-weight="600" font-size="18" fill="#101722">Mainland traffic</text><text x="292" y="497" font-family="'Avenir Next','Inter',Arial,sans-serif" font-weight="400" font-size="17" fill="#42474F">office · banking · payments · media · games · LAN</text><text x="833" y="497" text-anchor="end" font-family="'Avenir Next','Inter',Arial,sans-serif" font-weight="700" font-size="15" fill="#5C626B" letter-spacing="1.3">DIRECT</text>
  <line x1="112" y1="526" x2="880" y2="526" stroke="#E1E6EE"/>
  <text x="112" y="575" font-family="'Avenir Next','Inter',Arial,sans-serif" font-weight="600" font-size="18" fill="#101722">Overseas traffic</text><text x="292" y="575" font-family="'Avenir Next','Inter',Arial,sans-serif" font-weight="400" font-size="17" fill="#42474F">AI · GitHub · developer tools · unmatched sites</text><text x="833" y="575" text-anchor="end" font-family="'Avenir Next','Inter',Arial,sans-serif" font-weight="700" font-size="15" fill="#0071E3" letter-spacing="1.3">PROXY</text>
  <line x1="112" y1="625" x2="880" y2="625" stroke="#E1E6EE" stroke-width="1.5"/>
  <text x="112" y="676" font-family="'Avenir Next','Inter',Arial,sans-serif" font-weight="600" font-size="18" fill="#101722">You still choose the node</text><text x="112" y="711" font-family="'Avenir Next','Inter',Arial,sans-serif" font-weight="400" font-size="16" fill="#5C626B">No bundled nodes. No automatic country selection. Home-screen choice stays in control.</text>
  <text x="112" y="760" font-family="'Avenir Next','Inter',Arial,sans-serif" font-weight="400" font-size="14" fill="#5C626B">No subscription · No HTTPS decryption · No account or browsing-data collection</text>
  <rect x="956" y="238" width="488" height="500" rx="24" fill="#F2F5F9" stroke="#E1E6EE" stroke-width="1.5"/><rect x="1004" y="286" width="392" height="404" rx="16" fill="#FFFFFF" stroke="#E1E6EE" stroke-width="1.5"/><rect x="1004" y="286" width="9" height="404" rx="4.5" fill="#0071E3"/>
  <text x="1045" y="334" font-family="'Avenir Next','Inter',Arial,sans-serif" font-weight="700" font-size="13" fill="#5C626B" letter-spacing="1.7">ONE RULE SET · TWO PATHS</text>
  <rect x="1045" y="370" width="310" height="100" rx="14" fill="#F2F5F9"/><text x="1070" y="406" font-family="'Avenir Next','Inter',Arial,sans-serif" font-weight="600" font-size="19" fill="#101722">Mainland China</text><text x="1070" y="440" font-family="'Avenir Next','Inter',Arial,sans-serif" font-weight="400" font-size="15" fill="#5C626B">Apps · domains · IPs · LAN</text><text x="1330" y="426" text-anchor="end" font-family="'Avenir Next','Inter',Arial,sans-serif" font-weight="700" font-size="13" fill="#5C626B" letter-spacing="1.2">DIRECT</text>
  <line x1="1200" y1="470" x2="1200" y2="515" stroke="#0071E3" stroke-width="2"/><circle cx="1200" cy="493" r="6" fill="#0071E3"/>
  <rect x="1045" y="515" width="310" height="100" rx="14" fill="#FFFFFF" stroke="#E1E6EE" stroke-width="1.5"/><text x="1070" y="551" font-family="'Avenir Next','Inter',Arial,sans-serif" font-weight="600" font-size="19" fill="#101722">Overseas</text><text x="1070" y="585" font-family="'Avenir Next','Inter',Arial,sans-serif" font-weight="400" font-size="15" fill="#5C626B">AI · developer · unmatched</text><text x="1330" y="571" text-anchor="end" font-family="'Avenir Next','Inter',Arial,sans-serif" font-weight="700" font-size="13" fill="#0071E3" letter-spacing="1.2">PROXY</text>
  <text x="1200" y="653" text-anchor="middle" font-family="'Avenir Next','Inter',Arial,sans-serif" font-weight="600" font-size="16" fill="#101722">Manual home-screen node</text>
</svg>
