<svg xmlns="http://www.w3.org/2000/svg" width="1200" height="1200" viewBox="0 0 1200 1200" role="img" aria-labelledby="title desc">
  <title id="title">CN Direct by DeepWheel 中文消费者主图</title>
  <desc id="desc">小火箭保持开启，中国大陆应用和局域网优先直连，海外服务跟随首页手动选择的节点代理，并展示规则覆盖与隐私边界。</desc>
  <defs>
    <radialGradient id="aura" cx="100%" cy="0%" r="135%"><stop offset="0%" stop-color="#DFEAF7"/><stop offset="28%" stop-color="#ECF2FB"/><stop offset="62%" stop-color="#F6F9FC"/><stop offset="100%" stop-color="#FBFBFB"/></radialGradient>
    <filter id="shadow" x="-10%" y="-10%" width="120%" height="130%"><feDropShadow dx="0" dy="3" stdDeviation="3" flood-color="#101722" flood-opacity=".04"/><feDropShadow dx="0" dy="18" stdDeviation="24" flood-color="#101722" flood-opacity=".07"/></filter>
  </defs>
  <rect width="1200" height="1200" fill="url(#aura)"/>
  <rect x="44" y="44" width="1112" height="1112" rx="34" fill="#FFFFFF" filter="url(#shadow)"/>

  <g transform="translate(82 68) scale(.34)"><path fill="#101722" d="M37 115V68C37 46 55 28 76 28H153C159 28 162 32 162 38V113C162 135 145 151 124 151H115C111 151 108 148 108 144V130C108 126 111 123 115 123H123C129 123 132 119 132 113V63C132 59 129 56 125 56H79C72 56 67 61 67 68V113C67 116 65 117 62 117H39C38 117 37 116 37 115Z"/><circle cx="87.5" cy="137.5" r="14.99" fill="#0071E3"/></g>
  <text x="166" y="116" font-family="'Avenir Next','Inter','PingFang SC',sans-serif" font-weight="600" font-size="25" fill="#101722">Deep<tspan fill="#0071E3">Wheel</tspan></text>
  <text x="1112" y="112" text-anchor="end" font-family="'Avenir Next','Inter','PingFang SC',sans-serif" font-weight="600" font-size="14" fill="#5C626B" letter-spacing="2.5">CN DIRECT · SHADOWROCKET</text>
  <line x1="82" y1="150" x2="1118" y2="150" stroke="#E1E6EE"/>

  <text x="82" y="224" font-family="'Avenir Next','Inter','PingFang SC',sans-serif" font-weight="700" font-size="16" fill="#5C626B" letter-spacing="2.4">ALWAYS ON · MAINLAND FIRST</text>
  <text x="82" y="306" font-family="'Avenir Next','PingFang SC','Inter',sans-serif" font-weight="600" font-size="62" fill="#101722" letter-spacing="-1.5">小火箭一直开。</text>
  <text x="82" y="384" font-family="'Avenir Next','PingFang SC','Inter',sans-serif" font-weight="600" font-size="62" fill="#101722" letter-spacing="-1.5">国内应用照常用。</text>
  <text x="82" y="438" font-family="'Avenir Next','PingFang SC','Inter',sans-serif" font-weight="400" font-size="25" fill="#42474F">一份配置，分开国内与海外；节点仍由你在首页选择。</text>

  <rect x="82" y="494" width="1036" height="260" rx="24" fill="#F2F5F9"/>
  <rect x="112" y="526" width="976" height="84" rx="16" fill="#FFFFFF"/>
  <text x="144" y="560" font-family="'Avenir Next','PingFang SC','Inter',sans-serif" font-weight="600" font-size="23" fill="#101722">中国大陆与局域网</text>
  <text x="144" y="590" font-family="'Avenir Next','PingFang SC','Inter',sans-serif" font-weight="400" font-size="17" fill="#5C626B">办公 · 网银 · 支付 · 影音 · 游戏 · 会议</text>
  <text x="1054" y="576" text-anchor="end" font-family="'Avenir Next','Inter','PingFang SC',sans-serif" font-weight="700" font-size="16" fill="#5C626B" letter-spacing="1.3">DIRECT</text>
  <rect x="112" y="626" width="976" height="96" rx="16" fill="#FFFFFF" stroke="#0071E3" stroke-width="2"/>
  <rect x="112" y="626" width="9" height="96" rx="4.5" fill="#0071E3"/>
  <text x="144" y="664" font-family="'Avenir Next','PingFang SC','Inter',sans-serif" font-weight="600" font-size="23" fill="#101722">海外服务</text>
  <text x="144" y="696" font-family="'Avenir Next','PingFang SC','Inter',sans-serif" font-weight="400" font-size="17" fill="#5C626B">ChatGPT · Claude · Gemini · GitHub · 其他海外网站</text>
  <text x="1054" y="682" text-anchor="end" font-family="'Avenir Next','Inter','PingFang SC',sans-serif" font-weight="700" font-size="16" fill="#0071E3" letter-spacing="1.3">PROXY</text>

  <text x="82" y="828" font-family="'Avenir Next','PingFang SC','Inter',sans-serif" font-weight="600" font-size="22" fill="#101722">看得见的信任证据</text>
  <line x1="82" y1="858" x2="1118" y2="858" stroke="#E1E6EE"/>
  <text x="82" y="930" font-family="'Avenir Next','Inter','PingFang SC',sans-serif" font-weight="600" font-size="44" fill="#101722">124,653</text>
  <text x="82" y="964" font-family="'Avenir Next','PingFang SC','Inter',sans-serif" font-size="17" fill="#5C626B">大陆匹配规则</text>
  <line x1="406" y1="884" x2="406" y2="978" stroke="#E1E6EE"/>
  <text x="456" y="930" font-family="'Avenir Next','Inter','PingFang SC',sans-serif" font-weight="600" font-size="44" fill="#101722">251</text>
  <text x="456" y="964" font-family="'Avenir Next','PingFang SC','Inter',sans-serif" font-size="17" fill="#5C626B">上游子规则集合</text>
  <line x1="760" y1="884" x2="760" y2="978" stroke="#E1E6EE"/>
  <text x="810" y="930" font-family="'Avenir Next','Inter','PingFang SC',sans-serif" font-weight="600" font-size="44" fill="#0071E3">0</text>
  <text x="810" y="964" font-family="'Avenir Next','PingFang SC','Inter',sans-serif" font-size="17" fill="#5C626B">节点 · 订阅 · MITM · 脚本</text>

  <line x1="82" y1="1024" x2="1118" y2="1024" stroke="#E1E6EE"/>
  <text x="82" y="1070" font-family="'Avenir Next','PingFang SC','Inter',sans-serif" font-weight="600" font-size="18" fill="#101722">安装一次。以后，只选节点。</text>
  <text x="1118" y="1070" text-anchor="end" font-family="'Avenir Next','PingFang SC','Inter',sans-serif" font-size="15" fill="#5C626B">数据为固定上游快照 · 不代表 App 数量</text>
</svg>
