<svg xmlns="http://www.w3.org/2000/svg" width="1280" height="640" viewBox="0 0 1280 640" role="img" aria-labelledby="title desc">
  <title id="title">CN Direct by DeepWheel GitHub 社交预览</title>
  <desc id="desc">Shadowrocket 中国大陆长期常开配置，小火箭一直开，国内应用照常用，并展示大陆规则覆盖、上游子规则集合与零节点订阅边界。</desc>
  <defs><radialGradient id="aura" cx="100%" cy="0%" r="130%"><stop offset="0%" stop-color="#DFEAF7"/><stop offset="34%" stop-color="#ECF2FB"/><stop offset="70%" stop-color="#F6F9FC"/><stop offset="100%" stop-color="#FBFBFB"/></radialGradient><filter id="shadow" x="-15%" y="-20%" width="130%" height="150%"><feDropShadow dx="0" dy="2" stdDeviation="2" flood-color="#101722" flood-opacity=".04"/><feDropShadow dx="0" dy="14" stdDeviation="18" flood-color="#101722" flood-opacity=".08"/></filter></defs>
  <rect width="1280" height="640" fill="url(#aura)"/><rect x="48" y="48" width="1184" height="544" rx="32" fill="#FFFFFF" filter="url(#shadow)"/>
  <g transform="translate(82 69) scale(.27)"><path fill="#101722" d="M37 115V68C37 46 55 28 76 28H153C159 28 162 32 162 38V113C162 135 145 151 124 151H115C111 151 108 148 108 144V130C108 126 111 123 115 123H123C129 123 132 119 132 113V63C132 59 129 56 125 56H79C72 56 67 61 67 68V113C67 116 65 117 62 117H39C38 117 37 116 37 115Z"/><circle cx="87.5" cy="137.5" r="14.99" fill="#0071E3"/></g>
  <text x="145" y="106" font-family="'Avenir Next','Inter','PingFang SC',sans-serif" font-weight="600" font-size="21" fill="#101722">Deep<tspan fill="#0071E3">Wheel</tspan></text><text x="1196" y="102" text-anchor="end" font-family="'Avenir Next','Inter','PingFang SC',sans-serif" font-weight="600" font-size="13" fill="#5C626B" letter-spacing="2.4">OPEN SOURCE · SHADOWROCKET</text><line x1="82" y1="132" x2="1198" y2="132" stroke="#E1E6EE"/>
  <text x="86" y="194" font-family="'Avenir Next','Inter','PingFang SC',sans-serif" font-weight="700" font-size="14" fill="#5C626B" letter-spacing="2.2">CN DIRECT BY DEEPWHEEL</text>
  <text x="86" y="264" font-family="'Avenir Next','PingFang SC','Inter',sans-serif" font-weight="600" font-size="44" fill="#101722">小火箭一直开。</text>
  <text x="86" y="320" font-family="'Avenir Next','PingFang SC','Inter',sans-serif" font-weight="600" font-size="44" fill="#101722">国内应用照常用。</text>
  <text x="86" y="365" font-family="'Avenir Next','PingFang SC','Inter',sans-serif" font-size="21" fill="#42474F">国内与局域网直连 · 海外流量跟随首页节点</text>
  <rect x="86" y="410" width="1120" height="112" rx="22" fill="#F2F5F9"/>
  <text x="124" y="462" font-family="'Avenir Next','Inter','PingFang SC',sans-serif" font-weight="600" font-size="32" fill="#101722">124,653</text><text x="124" y="493" font-family="'Avenir Next','PingFang SC','Inter',sans-serif" font-size="15" fill="#5C626B">大陆匹配规则</text>
  <line x1="408" y1="436" x2="408" y2="496" stroke="#E1E6EE"/>
  <text x="454" y="462" font-family="'Avenir Next','Inter','PingFang SC',sans-serif" font-weight="600" font-size="32" fill="#101722">251</text><text x="454" y="493" font-family="'Avenir Next','PingFang SC','Inter',sans-serif" font-size="15" fill="#5C626B">上游子规则集合</text>
  <line x1="724" y1="436" x2="724" y2="496" stroke="#E1E6EE"/>
  <text x="770" y="462" font-family="'Avenir Next','Inter','PingFang SC',sans-serif" font-weight="600" font-size="32" fill="#0071E3">0</text><text x="770" y="493" font-family="'Avenir Next','PingFang SC','Inter',sans-serif" font-size="15" fill="#5C626B">节点 · 订阅 · MITM · 脚本</text>
  <text x="1206" y="489" text-anchor="end" font-family="'Avenir Next','PingFang SC','Inter',sans-serif" font-weight="600" font-size="17" fill="#101722">安装一次。以后，只选节点。</text>
  <text x="86" y="558" font-family="'Avenir Next','PingFang SC','Inter',sans-serif" font-size="14" fill="#5C626B">面向已拥有节点订阅的中国大陆用户 · 数据为固定上游快照</text>
</svg>
